<?xml version="1.0" encoding="UTF-8"?>
<!DOCTYPE svg PUBLIC "-//W3C//DTD SVG 1.1//EN" "http://www.w3.org/Graphics/SVG/1.1/DTD/svg11.dtd">
<!-- Creator: CorelDRAW -->
<svg xmlns="http://www.w3.org/2000/svg" xml:space="preserve" width="210mm" height="297mm" version="1.1" style="shape-rendering:geometricPrecision; text-rendering:geometricPrecision; image-rendering:optimizeQuality; fill-rule:evenodd; clip-rule:evenodd"
viewBox="0 0 21000 29700"
 xmlns:xlink="http://www.w3.org/1999/xlink"
 enable-background="new 0 0 1000 682.7737427">
 <defs>
  <style type="text/css">
   <![CDATA[
    .fil0 {fill:#753C94}
    .fil1 {fill:white}
   ]]>
  </style>
 </defs>
 <g id="Layer_x0020_1">
  <metadata id="CorelCorpID_0Corel-Layer"/>
  <g id="Axis_x0020_Logo.cdr">
   <path class="fil0" d="M6714 20260c2967,339 6011,-493 7617,-664 454,-48 793,-15 986,132 292,223 284,504 43,1006 -248,512 77,742 644,547 1454,-501 4403,-3130 3974,-6920 -436,-3846 -4029,-6347 -9466,-5974 -5527,380 -9114,3214 -9506,6443 -243,2009 1200,4916 5708,5430l0 0z"/>
   <path class="fil1" d="M6481 15130l-617 -1045 -615 1045 1232 0 0 0zm1423 985c98,169 41,385 -127,483 -3,2 -6,3 -8,5 -56,31 -118,47 -182,47 -130,1 -251,-67 -318,-179l-368 -626 -2072 0 -370 626c-100,171 -324,230 -498,132 -171,-93 -234,-306 -141,-477 2,-4 4,-7 6,-11l469 -798 1 -2 1252 -2125c65,-111 185,-179 316,-179 132,0 252,68 318,179l1249 2123 4 6c0,0 469,796 469,796zm2663 -1295l1244 -1215c140,-135 144,-357 9,-496 -3,-3 -6,-6 -9,-9 -144,-140 -373,-140 -517,0l-1244 1214 -1244 -1214c-145,-140 -374,-140 -518,0 -139,135 -143,358 -7,497 2,2 4,5 7,7l1244 1216 -1245 1215c-139,136 -142,358 -6,498 2,2 4,4 6,6 72,71 166,105 259,105 94,0 187,-34 259,-105l1245 -1215 1244 1215c72,71 166,105 259,105 96,1 189,-37 258,-105 139,-134 144,-356 9,-495 -3,-3 -6,-6 -9,-9 0,0 -1244,-1215 -1244,-1215zm2050 -1825c-202,0 -365,160 -365,357l0 2941c0,198 163,357 365,357 202,0 366,-159 366,-357l0 -2941c0,-197 -163,-357 -366,-357zm4670 2563c0,603 -502,1092 -1118,1092l-2357 0c-203,0 -366,-159 -366,-357 0,-197 163,-357 366,-357l2357 0c213,0 387,-169 387,-378 0,-208 -174,-377 -387,-377l-1705 0c-617,0 -1119,-490 -1119,-1092 0,-602 502,-1092 1119,-1092l2348 0c202,0 366,159 366,357 0,197 -164,357 -366,357l-2348 0c-214,0 -387,169 -387,377 0,209 173,379 387,379l1705 0c616,0 1118,489 1118,1091z"/>
  </g>
 </g>
</svg>
